<?xml version="1.0" encoding="UTF-8" standalone="no"?>
<!-- Created with Inkscape (http://www.inkscape.org/) -->

<svg
   width="210mm"
   height="297mm"
   viewBox="0 0 210 297"
   version="1.1"
   id="svg1"
   xmlns="http://www.w3.org/2000/svg"
   xmlns:svg="http://www.w3.org/2000/svg">
  <defs
     id="defs1" />
  <g
     id="layer1">
    <g
       id="g2"
       transform="matrix(0.3282502,0,0,0.30748771,-100.92231,50.273445)">
      <path
         d="m 600.77552,253.21225 c -5.69386,0 -10.51178,-2.00387 -14.45374,-6.01163 -3.72268,-4.00735 -5.58422,-8.9058 -5.58422,-14.69456 0,-5.78875 1.86154,-10.68697 5.58422,-14.6946 3.94196,-4.00763 8.75988,-6.01143 14.45374,-6.01143 5.69387,0 10.40214,2.0038 14.12522,6.01143 3.94197,4.00763 5.91275,8.90585 5.91275,14.6946 0,5.78876 -1.97078,10.68721 -5.91275,14.69456 -3.72308,4.00776 -8.43135,6.01163 -14.12522,6.01163 z M 378.3871,414.85324 c 0,-12.91316 3.83239,-23.3775 11.49717,-31.393 7.66481,-8.23798 18.83349,-14.91744 33.50592,-20.03797 l 29.56456,-10.3531 V 325.0157 c 0,-13.58139 -1.09524,-23.37789 -3.28491,-29.38952 -2.19007,-6.01123 -6.56981,-9.01705 -13.13962,-9.01705 -5.91315,0 -10.2929,2.00388 -13.14003,6.01163 -2.62784,3.78488 -5.36517,9.79611 -8.2121,18.03409 -2.62793,8.23798 -5.36534,14.36085 -8.21227,18.3686 -2.84693,4.00736 -7.22679,6.01124 -13.13962,6.01124 -4.1609,0 -7.4458,-1.33566 -9.85476,-4.00776 -2.40893,-2.89418 -3.61339,-6.67905 -3.61339,-11.35463 0,-7.57016 2.51843,-14.47209 7.55528,-20.7062 5.03688,-6.2341 11.71617,-11.02092 20.03796,-14.36084 8.54076,-3.56241 17.84786,-5.34341 27.92187,-5.34341 15.1104,0 26.93631,3.78488 35.4769,11.35503 8.5406,7.56976 12.8111,17.81162 12.8111,30.72518 v 105.86815 c 0,4.89846 0.98559,8.68333 2.95637,11.35504 2.19007,2.44922 5.25609,3.67364 9.19806,3.67364 3.72268,0 7.88353,-0.8907 12.48256,-2.67171 l 4.92716,-2.00387 V 198.77523 h -23.6514 v -11.021 h 31.53534 c 7.66464,0 12.92073,-1.78116 15.76747,-5.34351 h 7.5554 v 258.1584 h 37.44809 V 295.62618 h -20.69503 v -11.02092 h 28.57856 c 7.66505,0 12.92074,-1.78101 15.76787,-5.34341 h 7.55501 v 161.30727 h 22.99433 v 11.02093 H 499.92863 c -7.44576,1.33605 -13.13963,2.00387 -17.0812,2.00387 -16.42493,0 -26.06036,-6.67945 -28.90749,-20.03836 l -3.94197,3.67364 c -5.69386,5.12093 -11.27808,9.12868 -16.75306,12.02326 -5.25569,2.89417 -10.94955,4.34146 -17.08135,4.34146 -11.16868,0 -20.25694,-3.5624 -27.26476,-10.68721 -7.0078,-7.1244 -10.5117,-16.47556 -10.5117,-28.05347 z m 30.54967,-9.01705 c 0,8.23799 2.18995,14.8062 6.56981,19.70426 4.37982,4.67558 10.40221,7.01317 18.06686,7.01317 6.13204,0 12.04479,-2.33759 17.73865,-7.01317 l 1.64266,-1.33605 v -60.78213 l -19.38131,7.681 c -16.42441,6.45698 -24.63667,18.03449 -24.63667,34.73292 z"
         fill="#e9e3d6"
         id="path1"
         style="stroke-width:0.398702" />
      <path
         d="m 705.08155,289.94906 c -6.7887,0 -12.8111,3.22829 -18.0668,9.68487 -5.2561,6.45698 -9.3073,15.02868 -12.1544,25.71588 -2.6279,10.46434 -3.9416,21.48526 -3.9416,33.06277 0,22.48719 3.942,40.18757 11.8255,53.10113 8.1029,12.69069 19.2717,19.03643 33.5062,19.03643 12.0447,0 21.4613,-5.12093 28.25,-15.36279 7.008,-10.46433 10.5118,-24.71354 10.5118,-42.74803 0,-18.25697 2.6282,-34.39882 7.8839,-48.42556 5.475,-14.02673 13.2493,-24.93642 23.3233,-32.72905 10.0752,-8.01511 21.789,-12.02286 35.1495,-12.02286 16.2033,0 29.2329,5.45464 39.0888,16.36433 10.0752,10.90968 15.1108,25.93836 15.1108,45.08602 v 12.02286 h -91.9766 v 4.67558 c 0,20.03837 4.0508,37.29339 12.1525,51.76548 8.1016,14.24921 19.9311,21.37402 35.4765,21.37402 6.3513,0 11.7178,-0.77946 16.0956,-2.33799 4.3817,-1.781 8.7634,-4.78682 13.1412,-9.01704 l 6.2397,-5.67752 6.9015,7.34728 -7.5554,9.68527 c -14.0184,17.58874 -30.114,26.38331 -48.2908,26.38331 -14.4529,0 -26.8247,-4.56394 -37.1191,-13.69262 -10.2917,-9.12869 -17.5186,-21.70813 -21.6795,-37.73875 -3.7226,15.36279 -10.5117,27.831 -20.3665,37.40463 -9.6354,9.35116 -21.0231,14.02674 -34.1628,14.02674 -20.3664,0 -36.3532,-7.45852 -47.9598,-22.37596 -11.3877,-14.91703 -17.0816,-35.28911 -17.0816,-61.11624 0,-18.25696 2.9564,-34.51005 8.8691,-48.75966 6.1321,-14.47209 14.4538,-25.60425 24.9655,-33.39688 10.7307,-8.01511 22.8847,-12.02286 36.4625,-12.02286 13.1397,0 23.6514,3.11705 31.5354,9.35116 8.1024,6.2341 12.154,14.47209 12.154,24.71354 0,6.23411 -1.4234,11.2438 -4.2705,15.02868 -2.8467,3.5624 -6.5698,5.3438 -11.1688,5.3438 -5.4746,0 -9.4166,-2.00387 -11.8255,-6.01163 -2.409,-4.00775 -4.5991,-9.7965 -6.5698,-17.36626 -1.9708,-7.12481 -3.8324,-12.24574 -5.5843,-15.36279 -1.7519,-3.33953 -4.7086,-5.00929 -8.8695,-5.00929 z m 140.2654,52.76702 v -11.02092 c 0,-13.58139 -2.3005,-24.04572 -6.8976,-31.3934 -4.3817,-7.34728 -10.729,-11.02093 -19.0539,-11.02093 -9.6327,0 -17.519,5.0097 -23.651,15.02868 -5.9128,10.01898 -9.7443,22.82131 -11.4946,38.40657 z"
         fill="#e9e3d6"
         id="path2"
         style="stroke-width:0.398702" />
    </g>
  </g>
</svg>
