<?xml version="1.0" encoding="UTF-8" standalone="no"?>
<!-- Created with Inkscape (http://www.inkscape.org/) -->

<svg
   xmlns:dc="http://purl.org/dc/elements/1.1/"
   xmlns:cc="http://creativecommons.org/ns#"
   xmlns:rdf="http://www.w3.org/1999/02/22-rdf-syntax-ns#"
   xmlns:svg="http://www.w3.org/2000/svg"
   xmlns="http://www.w3.org/2000/svg"
   xmlns:sodipodi="http://sodipodi.sourceforge.net/DTD/sodipodi-0.dtd"
   xmlns:inkscape="http://www.inkscape.org/namespaces/inkscape"
   width="700mm"
   height="700mm"
   viewBox="0 0 700 700"
   version="1.1"
   id="svg10168"
   inkscape:export-filename="C:\Users\suitedoalex\sites\porto-logo-0.png"
   inkscape:export-xdpi="148.6263"
   inkscape:export-ydpi="148.6263"
   inkscape:version="0.92.4 (5da689c313, 2019-01-14)"
   sodipodi:docname="porto-logo.svg">
  <defs
     id="defs10162">
    <clipPath
       id="clip921">
      <path
         inkscape:connector-curvature="0"
         d="M 76.152344,101 H 560 V 214 H 76.152344 Z m 0,0"
         id="path3766" />
    </clipPath>
  </defs>
  <sodipodi:namedview
     id="base"
     pagecolor="#ffffff"
     bordercolor="#666666"
     borderopacity="1.0"
     inkscape:pageopacity="0.0"
     inkscape:pageshadow="2"
     inkscape:zoom="0.12374369"
     inkscape:cx="1861.8176"
     inkscape:cy="936.41518"
     inkscape:document-units="mm"
     inkscape:current-layer="layer1"
     showgrid="false"
     inkscape:window-width="1600"
     inkscape:window-height="837"
     inkscape:window-x="-8"
     inkscape:window-y="-8"
     inkscape:window-maximized="1" />
  <metadata
     id="metadata10165">
    <rdf:RDF>
      <cc:Work
         rdf:about="">
        <dc:format>image/svg+xml</dc:format>
        <dc:type
           rdf:resource="http://purl.org/dc/dcmitype/StillImage" />
        <dc:title></dc:title>
      </cc:Work>
    </rdf:RDF>
  </metadata>
  <g
     inkscape:label="Layer 1"
     inkscape:groupmode="layer"
     id="layer1"
     transform="translate(0,403)">
    <g
       transform="matrix(1.1661623,0,0,1.1661623,-20.83278,-236.58401)"
       style="clip-rule:nonzero"
       clip-path="url(#clip921)"
       id="g9288"
       inkscape:export-xdpi="18.012474"
       inkscape:export-ydpi="18.012474">
      <path
         inkscape:connector-curvature="0"
         style="fill:#F5F5F0;fill-opacity:1;fill-rule:evenodd;stroke:none"
         d="m 104.85547,163.22266 c 24.73437,-8.02735 56.45703,-14.32422 66.07031,-2.3086 0.30859,0.41797 0.97656,0.10547 0.82422,-0.41797 -7.04297,-31.16406 -48.28125,-28.80468 -68.74219,-21.19922 -0.20703,0.0547 -0.36328,0.26563 -0.30859,0.47266 1.02734,5.98047 1.59375,12.06641 1.59375,19.15234 0,1.3086 0,2.6211 -0.0547,3.88282 0,0.3125 0.3086,0.52343 0.61719,0.41797 z m 44.42578,31.73828 c -0.56641,0.63281 0.30859,1.47265 0.97656,0.94531 50.07813,-41.55078 -0.97656,-42.23438 -46.22265,-23.66016 -0.15625,0.0508 -0.25782,0.21094 -0.25782,0.36719 -1.64453,13.22266 -5.191402,22.61328 -9.15234,28.38281 -0.257812,0.36719 0.15625,0.83985 0.617188,0.62891 72.187502,-33.52344 64.011722,-17.05078 54.039062,-6.66406 z M 90.101563,112.22656 c -0.515625,0 -0.667969,0.57813 -0.257813,0.78907 3.652344,2.83203 7.351563,7.92187 10.33594,17.46874 0.0508,0.21094 0.30859,0.36719 0.5625,0.31641 36.55859,-7.71484 52.44531,1.10156 58.30859,6.29297 0.35938,0.36719 0.97656,-0.10156 0.71875,-0.52344 -18.70312,-24.28515 -54.35937,-24.32422 -68.152342,-24.33984 -0.539063,0 -1.046875,0 -1.515625,-0.004 z M 88.042969,101 h 82.214841 c 7.04297,0 12.75,5.92969 12.80469,13.22266 v 85.09375 c 0,7.29296 -5.76172,13.22265 -12.80469,13.22265 H 88.042969 c -7.09375,0 -12.800781,-5.92969 -12.800781,-13.22265 V 114.22266 C 75.242188,106.92969 81,101 88.042969,101 Z m 136.355471,51.46875 h 22.16015 c 12.1875,0 17.17188,-7.97656 17.17188,-16.89453 0,-8.91797 -4.98438,-16.89453 -17.17188,-16.89453 H 224.39844 Z M 203.57422,101 h 43.91015 c 22.82813,0 36.40235,14.32422 36.40235,34.625 0,20.25391 -13.57422,34.57422 -36.40235,34.57422 h -23.13671 v 42.39062 h -20.77344 z m 227.20703,83.57422 v -76.49219 h 19.17969 v 24.23828 h 22.0039 v 16.42188 h -22.0039 v 33.94531 c 0,8.12891 4.21484,12.27344 11.41406,12.27344 h 10.64062 v 17.68359 h -12.80078 c -17.17187,0 -28.43359,-10.23047 -28.43359,-28.07031 z m 66.12109,-12.17188 c 0,14.53516 8.74219,24.55469 21.85157,24.55469 12.95703,0 21.75,-10.01953 21.69921,-24.55469 0,-14.53125 -8.74218,-24.55078 -21.69921,-24.55078 -13.10938,0 -21.85157,10.01953 -21.85157,24.55078 z m -19.38281,0 c 0,-23.92187 17.17188,-41.44531 41.23438,-41.44531 23.91015,0 41.08203,17.52344 41.08203,41.44531 0,23.92578 -17.17188,41.44922 -41.08203,41.44922 -24.0625,0 -41.23438,-17.52344 -41.23438,-41.44922 z m -151.88281,24.55469 c -13.11328,0 -21.85156,-10.01953 -21.85156,-24.55469 0,-14.53125 8.73828,-24.55078 21.85156,-24.55078 12.95703,0 21.69531,10.01953 21.69531,24.55078 0,14.53516 -8.73828,24.55469 -21.69531,24.55469 z m 0,-66 c -24.0625,0 -41.23438,17.52344 -41.23438,41.44531 0,23.92578 17.17188,41.44922 41.23438,41.44922 23.90625,0 41.08203,-17.52344 41.08203,-41.44922 0,-23.92187 -17.22656,-41.44531 -41.08203,-41.44531 z m 68.79297,81.63281 v -50.36328 c 0,-8.13281 4.21875,-12.27734 11.41406,-12.27734 h 15.32422 V 132.26953 H 403.6875 c -17.17578,0 -28.43359,10.17578 -28.43359,28.06641 v 52.30859 h 19.17578 z m 0,0"
         id="path9286" />
    </g>
  </g>
</svg>
