<svg xmlns="http://www.w3.org/2000/svg" width="700mm" height="700mm" viewBox="0 0 700 700"><defs><clipPath id="a" clipPathUnits="userSpaceOnUse"><path d="M0 0h595.276v841.89H0Z"/></clipPath><clipPath id="b" clipPathUnits="userSpaceOnUse"><path d="M0 0h595.276v841.89H0Z"/></clipPath></defs><g style="fill:#f5f5f0;fill-opacity:1"><path d="M0 0c1.573-3.348-1.024-6.504-1.024-6.504-4.067-5.174 1.065-9.079 1.065-9.079-.622 3.233.778 5.046 1.363 5.664.151.159.227.272.227.272C6.095-4.589 0 0 0 0" style="fill:#f5f5f0;fill-opacity:1;fill-rule:nonzero;stroke:none" transform="matrix(4.74322 0 0 -4.74322 854.762 322.39)"/></g><g style="fill:#f5f5f0;fill-opacity:1"><path d="M0 0v-8.086c.035-1.631.035-2.659 2.377-2.659.779 0 1.134.035 1.772.106v-3.439c-1.703-.461-3.225-.569-4.077-.569-5.284 0-5.284 3.336-5.284 4.823V8.9h3.878A1.337 1.337 0 0 0 .003 7.567V5.22H0V3.475h4.255V0Zm-8.541-4.646v-9.68h-4.016c-.737 0-1.335.598-1.335 1.333v.006l-.004 9.796c0 .744 0 1.382-.282 1.949-.391.78-1.206 1.525-2.555 1.525-1.133 0-2.163-.532-2.73-1.383-.32-.462-.638-1.347-.638-2.731v-10.495h-5.284V.39c0 .07 0 2.02-.106 3.263h.773v.005h2.919c.738 0 1.368-.6 1.411-1.334l.001-.006h.001l.077-1.354c.5.822 1.921 3.114 5.81 3.114 3.512 0 5.001-2.129 5.46-3.368.392-1.1.498-2.023.498-5.356m-29.332.425v-10.105h-3.949c-.738 0-1.335.598-1.335 1.333v9.198c0 1.914-.284 4.043-3.014 4.043-3.157 0-3.226-2.944-3.226-5.603v-8.971h-5.284v10.638c0 1.382-.035 3.936-2.944 3.936-3.298 0-3.298-2.837-3.298-4.043v-10.531h-5.282V.212c0 1.135-.072 2.235-.179 3.368h.333v.002h3.403c.736 0 1.38-.599 1.436-1.335v-.005h.002l.073-.965c.568.779 1.951 2.694 5.534 2.694 4.112 0 5.284-2.517 5.638-3.369 1.49 2.873 3.901 3.334 5.744 3.334 3.617 0 5.072-2.164 5.462-2.874.957-1.56.886-3.722.886-5.283m3.586 7.837h5.248v-17.942h-5.248zm-53.857-5.318c0 2.907.425 5.673 1.881 7.446 1.028 1.312 2.659 2.163 4.715 2.163 2.625 0 4.788-1.383 5.852-4.539.532-1.56.639-3.333.639-4.575 0-4.077-.887-6.063-1.738-7.339-1.029-1.597-2.554-2.377-4.788-2.377-2.553 0-3.864.994-4.646 2.056-1.524 1.987-1.915 4.717-1.915 7.165m-5.744-.179c0-2.34.354-6.594 3.156-9.573 2.342-2.447 5.709-3.512 9.078-3.512 2.128 0 6.277.462 9.113 3.655C-70.449-8.972-69.314-5-69.314-1.277c0 2.517-.531 6.525-3.262 9.645-2.518 2.837-6.275 3.476-9.007 3.476-9.22 0-12.305-6.916-12.305-13.725m65.096 10.86a2.873 2.873 0 1 0-5.745 0 2.873 2.873 0 0 0 5.745 0" style="fill:#f5f5f0;fill-opacity:1;fill-rule:nonzero;stroke:none" transform="matrix(4.74322 0 0 -4.74322 1242.937 352.23)"/></g><g style="fill:#f5f5f0;fill-opacity:1"><path d="M0 0c-1.848 0-3.154-1.416-3.154-3.108v-.017c0-1.693 1.288-3.093 3.137-3.093 1.847 0 3.153 1.418 3.153 3.11v.017C3.136-1.399 1.846 0 0 0m0-5.239c-1.195 0-2.044.962-2.044 2.131v.017c0 1.168.832 2.122 2.027 2.122 1.194 0 2.045-.971 2.045-2.139v-.017c0-1.17-.835-2.114-2.028-2.114" style="fill:#f5f5f0;fill-opacity:1;fill-rule:nonzero;stroke:none" transform="matrix(4.74322 0 0 -4.74322 1222.228 437.184)"/></g><g style="fill:#f5f5f0;fill-opacity:1"><path d="M0 0c-1.194 0-2.053-.714-2.053-1.744v-.017c0-1.107.722-1.487 2.002-1.795 1.115-.258 1.355-.489 1.355-.919v-.018c0-.448-.41-.755-1.062-.755s-1.188.222-1.684.618a.5.5 0 0 1-.309.094.492.492 0 0 1-.294-.894 3.75 3.75 0 0 1 2.26-.755c1.263 0 2.146.669 2.146 1.795v.018c0 .996-.65 1.45-1.924 1.761-1.158.273-1.433.48-1.433.944v.017c0 .397.362.713.979.713.473 0 .92-.154 1.383-.455a.5.5 0 0 1 .276-.077.493.493 0 0 1 .263.912C1.366-.197.756 0 0 0" style="fill:#f5f5f0;fill-opacity:1;fill-rule:nonzero;stroke:none" transform="matrix(4.74322 0 0 -4.74322 1251.922 437.26)"/></g><g style="fill:#f5f5f0;fill-opacity:1"><path d="M0 0c-1.194 0-2.054-.714-2.054-1.744v-.017c0-1.107.723-1.487 2.001-1.795 1.117-.258 1.359-.489 1.359-.919v-.018c0-.448-.414-.755-1.067-.755s-1.185.222-1.684.618a.5.5 0 0 1-.308.094.492.492 0 0 1-.293-.894 3.75 3.75 0 0 1 2.259-.755c1.263 0 2.149.669 2.149 1.795v.018c0 .996-.654 1.45-1.925 1.761-1.159.273-1.435.48-1.435.944v.017c0 .397.363.713.981.713.471 0 .918-.154 1.381-.455a.5.5 0 0 1 .276-.077c.275 0 .499.216.499.489a.48.48 0 0 1-.232.423C1.364-.197.755 0 0 0" style="fill:#f5f5f0;fill-opacity:1;fill-rule:nonzero;stroke:none" transform="matrix(4.74322 0 0 -4.74322 1071.909 437.26)"/></g><g style="fill:#f5f5f0;fill-opacity:1"><path d="M0 0h-3.496a.524.524 0 0 1-.534-.533v-4.949c0-.299.231-.531.534-.531H.043a.47.47 0 0 1 .472.471.477.477 0 0 1-.472.474h-3.016v1.614h2.585c.259 0 .472.206.472.464a.477.477 0 0 1-.472.481h-2.585v1.564H0A.472.472 0 1 1 0 0" style="fill:#f5f5f0;fill-opacity:1;fill-rule:nonzero;stroke:none" transform="matrix(4.74322 0 0 -4.74322 1108.126 437.666)"/></g><g style="fill:#f5f5f0;fill-opacity:1"><path d="M0 0c-1.814 0-3.104-1.425-3.104-3.109v-.016c0-1.754 1.238-3.093 3.119-3.093.902 0 1.623.309 2.14.652a.73.73 0 0 1 .369.67v1.607c0 .3-.232.532-.533.532H.316a.47.47 0 0 1-.472-.464c0-.257.215-.454.472-.454h1.185v-1.126C1.133-5.077.617-5.257.05-5.257c-1.228 0-2.045.911-2.045 2.148v.018c0 1.151.843 2.121 1.95 2.121.653 0 1.074-.19 1.461-.471a.54.54 0 0 1 .328-.121.526.526 0 0 1 .308.953C1.501-.215.9 0 0 0" style="fill:#f5f5f0;fill-opacity:1;fill-rule:nonzero;stroke:none" transform="matrix(4.74322 0 0 -4.74322 1129.76 437.183)"/></g><g style="fill:#f5f5f0;fill-opacity:1"><path d="M0 0a.523.523 0 0 1-.532-.525v-2.981c0-1.108-.577-1.666-1.513-1.666-.944 0-1.52.591-1.52 1.71v2.937A.52.52 0 0 1-4.089 0a.523.523 0 0 1-.532-.525v-2.981c0-1.745.996-2.647 2.559-2.647 1.571 0 2.586.902 2.586 2.699v2.929A.52.52 0 0 1 0 0" style="fill:#f5f5f0;fill-opacity:1;fill-rule:nonzero;stroke:none" transform="matrix(4.74322 0 0 -4.74322 1169.718 437.459)"/></g><g style="fill:#f5f5f0;fill-opacity:1"><path d="M0 0h-2.147a.523.523 0 0 1-.533-.533v-5c0-.291.23-.523.533-.523a.52.52 0 0 1 .523.523v1.616h1.333l1.46-1.864a.6.6 0 0 1 .514-.275c.259 0 .506.198.506.49 0 .163-.068.274-.172.402L.866-3.711c.808.249 1.367.833 1.367 1.795v.018c0 .524-.18.97-.497 1.296C1.348-.224.754 0 0 0m-1.624-2.981v2.02h1.538c.78 0 1.245-.353 1.245-.997v-.018c0-.61-.482-1.005-1.237-1.005z" style="fill:#f5f5f0;fill-opacity:1;fill-rule:nonzero;stroke:none" transform="matrix(4.74322 0 0 -4.74322 1191.8 437.667)"/></g><g style="fill:#f5f5f0;fill-opacity:1"><path d="M0 0c-1.848 0-3.154-1.416-3.154-3.108v-.017c0-1.693 1.288-3.093 3.137-3.093 1.847 0 3.153 1.418 3.153 3.11v.017C3.136-1.399 1.846 0 0 0m0-5.239c-1.195 0-2.044.962-2.044 2.131v.017c0 1.168.832 2.122 2.027 2.122 1.194 0 2.045-.971 2.045-2.139v-.017c0-1.17-.835-2.114-2.028-2.114" style="fill:#f5f5f0;fill-opacity:1;fill-rule:nonzero;stroke:none" transform="matrix(4.15604 0 0 -4.15604 1247.147 681.63)"/></g><g style="fill:#f5f5f0;fill-opacity:1"><path d="M0 0c-1.194 0-2.053-.714-2.053-1.744v-.017c0-1.107.722-1.487 2.002-1.795 1.115-.258 1.355-.489 1.355-.919v-.018c0-.448-.41-.755-1.062-.755s-1.188.222-1.684.618a.5.5 0 0 1-.309.094.492.492 0 0 1-.294-.894 3.75 3.75 0 0 1 2.26-.755c1.263 0 2.146.669 2.146 1.795v.018c0 .996-.65 1.45-1.924 1.761-1.158.273-1.433.48-1.433.944v.017c0 .397.362.713.979.713.473 0 .92-.154 1.383-.455a.5.5 0 0 1 .276-.077.493.493 0 0 1 .263.912C1.366-.197.756 0 0 0" style="fill:#f5f5f0;fill-opacity:1;fill-rule:nonzero;stroke:none" transform="matrix(4.15604 0 0 -4.15604 1273.165 681.698)"/></g><g style="fill:#f5f5f0;fill-opacity:1"><path d="M0 0c-1.194 0-2.054-.714-2.054-1.744v-.017c0-1.107.723-1.487 2.001-1.795 1.117-.258 1.359-.489 1.359-.919v-.018c0-.448-.414-.755-1.067-.755s-1.185.222-1.684.618a.5.5 0 0 1-.308.094.492.492 0 0 1-.293-.894 3.75 3.75 0 0 1 2.259-.755c1.263 0 2.149.669 2.149 1.795v.018c0 .996-.654 1.45-1.925 1.761-1.159.273-1.435.48-1.435.944v.017c0 .397.363.713.981.713.471 0 .918-.154 1.381-.455a.5.5 0 0 1 .276-.077c.275 0 .499.216.499.489a.48.48 0 0 1-.232.423C1.364-.197.755 0 0 0" style="fill:#f5f5f0;fill-opacity:1;fill-rule:nonzero;stroke:none" transform="matrix(4.15604 0 0 -4.15604 1115.436 681.698)"/></g><g style="fill:#f5f5f0;fill-opacity:1"><path d="M0 0h-3.496a.524.524 0 0 1-.534-.533v-4.949c0-.299.231-.531.534-.531H.043a.47.47 0 0 1 .472.471.477.477 0 0 1-.472.474h-3.016v1.614h2.585c.259 0 .472.206.472.464a.477.477 0 0 1-.472.481h-2.585v1.564H0A.472.472 0 1 1 0 0" style="fill:#f5f5f0;fill-opacity:1;fill-rule:nonzero;stroke:none" transform="matrix(4.15604 0 0 -4.15604 1147.17 682.053)"/></g><g style="fill:#f5f5f0;fill-opacity:1"><path d="M0 0c-1.814 0-3.104-1.425-3.104-3.109v-.016c0-1.754 1.238-3.093 3.119-3.093.902 0 1.623.309 2.14.652a.73.73 0 0 1 .369.67v1.607c0 .3-.232.532-.533.532H.316a.47.47 0 0 1-.472-.464c0-.257.215-.454.472-.454h1.185v-1.126C1.133-5.077.617-5.257.05-5.257c-1.228 0-2.045.911-2.045 2.148v.018c0 1.151.843 2.121 1.95 2.121.653 0 1.074-.19 1.461-.471a.54.54 0 0 1 .328-.121.526.526 0 0 1 .308.953C1.501-.215.9 0 0 0" style="fill:#f5f5f0;fill-opacity:1;fill-rule:nonzero;stroke:none" transform="matrix(4.15604 0 0 -4.15604 1166.126 681.63)"/></g><g style="fill:#f5f5f0;fill-opacity:1"><path d="M0 0a.523.523 0 0 1-.532-.525v-2.981c0-1.108-.577-1.666-1.513-1.666-.944 0-1.52.591-1.52 1.71v2.937A.52.52 0 0 1-4.089 0a.523.523 0 0 1-.532-.525v-2.981c0-1.745.996-2.647 2.559-2.647 1.571 0 2.586.902 2.586 2.699v2.929A.52.52 0 0 1 0 0" style="fill:#f5f5f0;fill-opacity:1;fill-rule:nonzero;stroke:none" transform="matrix(4.15604 0 0 -4.15604 1201.137 681.872)"/></g><g style="fill:#f5f5f0;fill-opacity:1"><path d="M0 0h-2.147a.523.523 0 0 1-.533-.533v-5c0-.291.23-.523.533-.523a.52.52 0 0 1 .523.523v1.616h1.333l1.46-1.864a.6.6 0 0 1 .514-.275c.259 0 .506.198.506.49 0 .163-.068.274-.172.402L.866-3.711c.808.249 1.367.833 1.367 1.795v.018c0 .524-.18.97-.497 1.296C1.348-.224.754 0 0 0m-1.624-2.981v2.02h1.538c.78 0 1.245-.353 1.245-.997v-.018c0-.61-.482-1.005-1.237-1.005z" style="fill:#f5f5f0;fill-opacity:1;fill-rule:nonzero;stroke:none" transform="matrix(4.15604 0 0 -4.15604 1220.486 682.054)"/></g><g style="fill:#f5f5f0;fill-opacity:1"><path d="M0 0h-3.496a.524.524 0 0 1-.534-.533v-4.949c0-.299.231-.531.534-.531H.043a.47.47 0 0 1 .472.471.477.477 0 0 1-.472.474h-3.016v1.614h2.585c.259 0 .472.206.472.464a.477.477 0 0 1-.472.481h-2.585v1.564H0A.472.472 0 1 1 0 0" style="fill:#f5f5f0;fill-opacity:1;fill-rule:nonzero;stroke:none" transform="matrix(4.15604 0 0 -4.15604 1087.94 682.19)"/></g><g style="fill:#f5f5f0;fill-opacity:1"><path d="M0 0c-1.194 0-2.054-.714-2.054-1.744v-.017c0-1.107.723-1.487 2.001-1.795 1.117-.258 1.359-.489 1.359-.919v-.018c0-.448-.414-.755-1.067-.755s-1.185.222-1.684.618a.5.5 0 0 1-.308.094.492.492 0 0 1-.293-.894 3.75 3.75 0 0 1 2.259-.755c1.263 0 2.149.669 2.149 1.795v.018c0 .996-.654 1.45-1.925 1.761-1.159.273-1.435.48-1.435.944v.017c0 .397.363.713.981.713.471 0 .918-.154 1.381-.455a.5.5 0 0 1 .276-.077c.275 0 .499.216.499.489a.48.48 0 0 1-.232.423C1.364-.197.755 0 0 0" style="fill:#f5f5f0;fill-opacity:1;fill-rule:nonzero;stroke:none" transform="matrix(4.15604 0 0 -4.15604 939.153 681.611)"/></g><g style="fill:#f5f5f0;fill-opacity:1"><path d="M0 0h-3.496a.524.524 0 0 1-.534-.533v-4.949c0-.299.231-.531.534-.531H.043a.47.47 0 0 1 .472.471.477.477 0 0 1-.472.474h-3.016v1.614h2.585c.259 0 .472.206.472.464a.477.477 0 0 1-.472.481h-2.585v1.564H0A.472.472 0 1 1 0 0" style="fill:#f5f5f0;fill-opacity:1;fill-rule:nonzero;stroke:none" transform="matrix(4.15604 0 0 -4.15604 1052.975 682.213)"/></g><g clip-path="url(#a)" style="fill:#f5f5f0;fill-opacity:1" transform="matrix(2.35025 0 0 -2.35025 -61.337 1135.106)"><g style="fill:#f5f5f0;fill-opacity:1"><path d="M0 0a.99.99 0 0 0 1.004 1.005h3.227c3.565 0 6.03-2.451 6.03-5.642v-.032c0-3.194-2.465-5.674-6.03-5.674H1.004A.99.99 0 0 0 0-9.338Zm4.231-8.529c2.382 0 3.937 1.608 3.937 3.826v.034c0 2.22-1.555 3.857-3.937 3.857H1.993v-7.717z" style="fill:#f5f5f0;fill-opacity:1;fill-rule:nonzero;stroke:none" transform="translate(455.154 191.73)scale(.9335)"/></g><g style="fill:#f5f5f0;fill-opacity:1"><path d="m0 0 4.215 9.401c.228.501.631.812 1.199.812h.099c.567 0 .957-.311 1.183-.812L10.909 0a.932.932 0 0 0-.826-1.377c-.469 0-.794.273-.974.695l-.923 2.125H2.677L1.719-.746a.96.96 0 0 0-.924-.631.91.91 0 0 0-.924.92c0 .149.049.295.129.457m7.425 3.21L5.43 7.796 3.437 3.21Z" style="fill:#f5f5f0;fill-opacity:1;fill-rule:nonzero;stroke:none" transform="translate(431.467 183.322)scale(.93756)"/></g><g style="fill:#f5f5f0;fill-opacity:1"><path d="M0 0v5.627c0 .551.436.989 1.005.989a.983.983 0 0 0 .989-.989V.082c0-2.106 1.086-3.225 2.867-3.225C6.63-3.143 7.715-2.09 7.715 0v5.627c0 .551.439.989 1.006.989a.98.98 0 0 0 .989-.989V.098c0-3.388-1.914-5.088-4.878-5.088C1.882-4.99 0-3.29 0 0" style="fill:#f5f5f0;fill-opacity:1;fill-rule:nonzero;stroke:none" transform="translate(443.433 186.642)scale(.93463)"/></g><path d="m447.522 194.013 1.096 1.78c.348.362 1.106.1 1.106.1a.66.66 0 0 0 .482-.573c-.005-.165-.251-.382-.251-.382l-1.086-.995c-.623-.483-1.125-.332-1.125-.332s-.458.06-.222.402" style="fill:#f5f5f0;stroke:none;stroke-width:.04254863;stroke-linecap:butt;stroke-linejoin:miter;stroke-miterlimit:4;stroke-dasharray:none;stroke-opacity:1;fill-opacity:1"/></g><g style="fill:#f5f5f0;fill-opacity:1"><path d="M0 0c1.573-3.348-1.024-6.504-1.024-6.504-4.067-5.174 1.065-9.079 1.065-9.079-.622 3.233.778 5.046 1.363 5.664.151.159.227.272.227.272C6.095-4.589 0 0 0 0" style="fill:#f5f5f0;fill-opacity:1;fill-rule:nonzero;stroke:none" transform="matrix(5.00154 0 0 -5.00154 852.164 557.074)"/></g><g style="fill:#f5f5f0;fill-opacity:1"><path d="M0 0v-8.086c.035-1.631.035-2.659 2.377-2.659.779 0 1.134.035 1.772.106v-3.439c-1.703-.461-3.225-.569-4.077-.569-5.284 0-5.284 3.336-5.284 4.823V8.9h3.878A1.337 1.337 0 0 0 .003 7.567V5.22H0V3.475h4.255V0Zm-8.541-4.646v-9.68h-4.016c-.737 0-1.335.598-1.335 1.333v.006l-.004 9.796c0 .744 0 1.382-.282 1.949-.391.78-1.206 1.525-2.555 1.525-1.133 0-2.163-.532-2.73-1.383-.32-.462-.638-1.347-.638-2.731v-10.495h-5.284V.39c0 .07 0 2.02-.106 3.263h.773v.005h2.919c.738 0 1.368-.6 1.411-1.334l.001-.006h.001l.077-1.354c.5.822 1.921 3.114 5.81 3.114 3.512 0 5.001-2.129 5.46-3.368.392-1.1.498-2.023.498-5.356m-29.332.425v-10.105h-3.949c-.738 0-1.335.598-1.335 1.333v9.198c0 1.914-.284 4.043-3.014 4.043-3.157 0-3.226-2.944-3.226-5.603v-8.971h-5.284v10.638c0 1.382-.035 3.936-2.944 3.936-3.298 0-3.298-2.837-3.298-4.043v-10.531h-5.282V.212c0 1.135-.072 2.235-.179 3.368h.333v.002h3.403c.736 0 1.38-.599 1.436-1.335v-.005h.002l.073-.965c.568.779 1.951 2.694 5.534 2.694 4.112 0 5.284-2.517 5.638-3.369 1.49 2.873 3.901 3.334 5.744 3.334 3.617 0 5.072-2.164 5.462-2.874.957-1.56.886-3.722.886-5.283m3.586 7.837h5.248v-17.942h-5.248zm-53.857-5.318c0 2.907.425 5.673 1.881 7.446 1.028 1.312 2.659 2.163 4.715 2.163 2.625 0 4.788-1.383 5.852-4.539.532-1.56.639-3.333.639-4.575 0-4.077-.887-6.063-1.738-7.339-1.029-1.597-2.554-2.377-4.788-2.377-2.553 0-3.864.994-4.646 2.056-1.524 1.987-1.915 4.717-1.915 7.165m-5.744-.179c0-2.34.354-6.594 3.156-9.573 2.342-2.447 5.709-3.512 9.078-3.512 2.128 0 6.277.462 9.113 3.655C-70.449-8.972-69.314-5-69.314-1.277c0 2.517-.531 6.525-3.262 9.645-2.518 2.837-6.275 3.476-9.007 3.476-9.22 0-12.305-6.916-12.305-13.725m65.096 10.86a2.873 2.873 0 1 0-5.745 0 2.873 2.873 0 0 0 5.745 0" style="fill:#f5f5f0;fill-opacity:1;fill-rule:nonzero;stroke:none" transform="matrix(5.00154 0 0 -5.00154 1261.48 588.539)"/></g><g style="fill:#f5f5f0;fill-opacity:1"><path d="M0 0c1.573-3.348-1.024-6.504-1.024-6.504-4.067-5.174 1.065-9.079 1.065-9.079-.622 3.233.778 5.046 1.363 5.664.151.159.227.272.227.272C6.095-4.589 0 0 0 0" style="fill:#f5f5f0;fill-opacity:1;fill-rule:nonzero;stroke:none" transform="matrix(5.00154 0 0 -5.00154 164.836 310.743)"/></g><g style="fill:#f5f5f0;fill-opacity:1"><path d="M0 0v-8.086c.035-1.631.035-2.659 2.377-2.659.779 0 1.134.035 1.772.106v-3.439c-1.703-.461-3.225-.569-4.077-.569-5.284 0-5.284 3.336-5.284 4.823V8.9h3.878A1.337 1.337 0 0 0 .003 7.567V5.22H0V3.475h4.255V0Zm-8.541-4.646v-9.68h-4.016c-.737 0-1.335.598-1.335 1.333v.006l-.004 9.796c0 .744 0 1.382-.282 1.949-.391.78-1.206 1.525-2.555 1.525-1.133 0-2.163-.532-2.73-1.383-.32-.462-.638-1.347-.638-2.731v-10.495h-5.284V.39c0 .07 0 2.02-.106 3.263h.773v.005h2.919c.738 0 1.368-.6 1.411-1.334l.001-.006h.001l.077-1.354c.5.822 1.921 3.114 5.81 3.114 3.512 0 5.001-2.129 5.46-3.368.392-1.1.498-2.023.498-5.356m-29.332.425v-10.105h-3.949c-.738 0-1.335.598-1.335 1.333v9.198c0 1.914-.284 4.043-3.014 4.043-3.157 0-3.226-2.944-3.226-5.603v-8.971h-5.284v10.638c0 1.382-.035 3.936-2.944 3.936-3.298 0-3.298-2.837-3.298-4.043v-10.531h-5.282V.212c0 1.135-.072 2.235-.179 3.368h.333v.002h3.403c.736 0 1.38-.599 1.436-1.335v-.005h.002l.073-.965c.568.779 1.951 2.694 5.534 2.694 4.112 0 5.284-2.517 5.638-3.369 1.49 2.873 3.901 3.334 5.744 3.334 3.617 0 5.072-2.164 5.462-2.874.957-1.56.886-3.722.886-5.283m3.586 7.837h5.248v-17.942h-5.248zm-53.857-5.318c0 2.907.425 5.673 1.881 7.446 1.028 1.312 2.659 2.163 4.715 2.163 2.625 0 4.788-1.383 5.852-4.539.532-1.56.639-3.333.639-4.575 0-4.077-.887-6.063-1.738-7.339-1.029-1.597-2.554-2.377-4.788-2.377-2.553 0-3.864.994-4.646 2.056-1.524 1.987-1.915 4.717-1.915 7.165m-5.744-.179c0-2.34.354-6.594 3.156-9.573 2.342-2.447 5.709-3.512 9.078-3.512 2.128 0 6.277.462 9.113 3.655C-70.449-8.972-69.314-5-69.314-1.277c0 2.517-.531 6.525-3.262 9.645-2.518 2.837-6.275 3.476-9.007 3.476-9.22 0-12.305-6.916-12.305-13.725m65.096 10.86a2.873 2.873 0 1 0-5.745 0 2.873 2.873 0 0 0 5.745 0" style="fill:#f5f5f0;fill-opacity:1;fill-rule:nonzero;stroke:none" transform="matrix(5.00154 0 0 -5.00154 574.151 342.208)"/></g><g style="fill:#f5f5f0;fill-opacity:1"><path d="M0 0c-1.194 0-2.054-.714-2.054-1.744v-.017c0-1.107.723-1.487 2.001-1.795 1.117-.258 1.359-.489 1.359-.919v-.018c0-.448-.414-.755-1.067-.755s-1.185.222-1.684.618a.5.5 0 0 1-.308.094.492.492 0 0 1-.293-.894 3.75 3.75 0 0 1 2.259-.755c1.263 0 2.149.669 2.149 1.795v.018c0 .996-.654 1.45-1.925 1.761-1.159.273-1.435.48-1.435.944v.017c0 .397.363.713.981.713.471 0 .918-.154 1.381-.455a.5.5 0 0 1 .276-.077c.275 0 .499.216.499.489a.48.48 0 0 1-.232.423C1.364-.197.755 0 0 0" style="fill:#f5f5f0;fill-opacity:1;fill-rule:nonzero;stroke:none" transform="matrix(5.30853 0 0 -5.30853 1101.677 200.951)"/></g><g style="fill:#f5f5f0;fill-opacity:1"><path d="M0 0h-3.496a.524.524 0 0 1-.534-.533v-4.949c0-.299.231-.531.534-.531H.043a.47.47 0 0 1 .472.471.477.477 0 0 1-.472.474h-3.016v1.614h2.585c.259 0 .472.206.472.464a.477.477 0 0 1-.472.481h-2.585v1.564H0A.472.472 0 1 1 0 0" style="fill:#f5f5f0;fill-opacity:1;fill-rule:nonzero;stroke:none" transform="matrix(5.30853 0 0 -5.30853 1247.063 201.72)"/></g><g clip-path="url(#b)" style="fill:#f5f5f0;fill-opacity:1" transform="matrix(3.00199 0 0 -3.00199 -176.255 780.203)"><g style="fill:#f5f5f0;fill-opacity:1"><path d="M0 0a.99.99 0 0 0 1.004 1.005h3.227c3.565 0 6.03-2.451 6.03-5.642v-.032c0-3.194-2.465-5.674-6.03-5.674H1.004A.99.99 0 0 0 0-9.338Zm4.231-8.529c2.382 0 3.937 1.608 3.937 3.826v.034c0 2.22-1.555 3.857-3.937 3.857H1.993v-7.717z" style="fill:#f5f5f0;fill-opacity:1;fill-rule:nonzero;stroke:none" transform="translate(455.154 191.73)scale(.9335)"/></g><g style="fill:#f5f5f0;fill-opacity:1"><path d="m0 0 4.215 9.401c.228.501.631.812 1.199.812h.099c.567 0 .957-.311 1.183-.812L10.909 0a.932.932 0 0 0-.826-1.377c-.469 0-.794.273-.974.695l-.923 2.125H2.677L1.719-.746a.96.96 0 0 0-.924-.631.91.91 0 0 0-.924.92c0 .149.049.295.129.457m7.425 3.21L5.43 7.796 3.437 3.21Z" style="fill:#f5f5f0;fill-opacity:1;fill-rule:nonzero;stroke:none" transform="translate(431.467 183.322)scale(.93756)"/></g><g style="fill:#f5f5f0;fill-opacity:1"><path d="M0 0v5.627c0 .551.436.989 1.005.989a.983.983 0 0 0 .989-.989V.082c0-2.106 1.086-3.225 2.867-3.225C6.63-3.143 7.715-2.09 7.715 0v5.627c0 .551.439.989 1.006.989a.98.98 0 0 0 .989-.989V.098c0-3.388-1.914-5.088-4.878-5.088C1.882-4.99 0-3.29 0 0" style="fill:#f5f5f0;fill-opacity:1;fill-rule:nonzero;stroke:none" transform="translate(443.433 186.642)scale(.93463)"/></g><path d="m447.522 194.013 1.096 1.78c.348.362 1.106.1 1.106.1a.66.66 0 0 0 .482-.573c-.005-.165-.251-.382-.251-.382l-1.086-.995c-.623-.483-1.125-.332-1.125-.332s-.458.06-.222.402" style="fill:#f5f5f0;stroke:none;stroke-width:.04254863;stroke-linecap:butt;stroke-linejoin:miter;stroke-miterlimit:4;stroke-dasharray:none;stroke-opacity:1;fill-opacity:1"/></g><g style="fill:#f5f5f0;fill-opacity:1"><path d="M0 0c1.573-3.348-1.024-6.504-1.024-6.504-4.067-5.174 1.065-9.079 1.065-9.079-.622 3.233.778 5.046 1.363 5.664.151.159.227.272.227.272C6.095-4.589 0 0 0 0" style="fill:#f5f5f0;fill-opacity:1;fill-rule:nonzero;stroke:none" transform="matrix(4.81715 0 0 -4.81715 835.295 77.72)"/></g><g style="fill:#f5f5f0;fill-opacity:1"><path d="M0 0v-8.086c.035-1.631.035-2.659 2.377-2.659.779 0 1.134.035 1.772.106v-3.439c-1.703-.461-3.225-.569-4.077-.569-5.284 0-5.284 3.336-5.284 4.823V8.9h3.878A1.337 1.337 0 0 0 .003 7.567V5.22H0V3.475h4.255V0Zm-8.541-4.646v-9.68h-4.016c-.737 0-1.335.598-1.335 1.333v.006l-.004 9.796c0 .744 0 1.382-.282 1.949-.391.78-1.206 1.525-2.555 1.525-1.133 0-2.163-.532-2.73-1.383-.32-.462-.638-1.347-.638-2.731v-10.495h-5.284V.39c0 .07 0 2.02-.106 3.263h.773v.005h2.919c.738 0 1.368-.6 1.411-1.334l.001-.006h.001l.077-1.354c.5.822 1.921 3.114 5.81 3.114 3.512 0 5.001-2.129 5.46-3.368.392-1.1.498-2.023.498-5.356m-29.332.425v-10.105h-3.949c-.738 0-1.335.598-1.335 1.333v9.198c0 1.914-.284 4.043-3.014 4.043-3.157 0-3.226-2.944-3.226-5.603v-8.971h-5.284v10.638c0 1.382-.035 3.936-2.944 3.936-3.298 0-3.298-2.837-3.298-4.043v-10.531h-5.282V.212c0 1.135-.072 2.235-.179 3.368h.333v.002h3.403c.736 0 1.38-.599 1.436-1.335v-.005h.002l.073-.965c.568.779 1.951 2.694 5.534 2.694 4.112 0 5.284-2.517 5.638-3.369 1.49 2.873 3.901 3.334 5.744 3.334 3.617 0 5.072-2.164 5.462-2.874.957-1.56.886-3.722.886-5.283m3.586 7.837h5.248v-17.942h-5.248zm-53.857-5.318c0 2.907.425 5.673 1.881 7.446 1.028 1.312 2.659 2.163 4.715 2.163 2.625 0 4.788-1.383 5.852-4.539.532-1.56.639-3.333.639-4.575 0-4.077-.887-6.063-1.738-7.339-1.029-1.597-2.554-2.377-4.788-2.377-2.553 0-3.864.994-4.646 2.056-1.524 1.987-1.915 4.717-1.915 7.165m-5.744-.179c0-2.34.354-6.594 3.156-9.573 2.342-2.447 5.709-3.512 9.078-3.512 2.128 0 6.277.462 9.113 3.655C-70.449-8.972-69.314-5-69.314-1.277c0 2.517-.531 6.525-3.262 9.645-2.518 2.837-6.275 3.476-9.007 3.476-9.22 0-12.305-6.916-12.305-13.725m65.096 10.86a2.873 2.873 0 1 0-5.745 0 2.873 2.873 0 0 0 5.745 0" style="fill:#f5f5f0;fill-opacity:1;fill-rule:nonzero;stroke:none" transform="matrix(4.81715 0 0 -4.81715 1229.52 108.025)"/></g></svg>