<?xml version="1.0" encoding="UTF-8"?>
<svg xmlns="http://www.w3.org/2000/svg" xmlns:xlink="http://www.w3.org/1999/xlink" width="2626" height="2626" viewBox="0 0 2626 2626">
<path fill-rule="nonzero" fill="rgb(0%, 0%, 0%)" fill-opacity="1" d="M 877.828125 30.28125 L 858.136719 59.621094 L 840.289062 62.078125 C 823.054688 64.339844 822.234375 64.75 815.054688 72.949219 L 807.875 81.570312 L 785.308594 82.800781 L 762.949219 84.03125 L 752.691406 105.371094 L 747.5625 101.46875 C 743.253906 98.191406 738.949219 97.371094 722.945312 97.371094 L 703.253906 97.371094 L 694.226562 88.140625 C 688.484375 82.191406 680.890625 77.261719 673.917969 74.589844 C 655.660156 67.820312 609.503906 54.28125 604.578125 54.28125 C 595.347656 54.28125 600.066406 61.671875 624.066406 84.441406 L 648.273438 107.210938 L 651.761719 149.058594 C 653.8125 171.839844 655.863281 193.78125 656.480469 197.269531 L 657.507812 204.039062 L 703.664062 204.039062 L 702.433594 214.710938 L 701.40625 225.578125 L 680.6875 226.199219 L 659.761719 226.808594 L 657.097656 241.378906 L 654.222656 256.148438 L 618.324219 270.710938 L 582.425781 285.480469 L 528.0625 286.921875 L 473.699219 288.359375 L 463.648438 274.410156 C 452.570312 259.019531 450.3125 251.640625 450.105469 229.269531 C 450.105469 214.710938 447.644531 204.039062 444.363281 204.039062 C 443.335938 204.039062 436.363281 209.371094 428.363281 215.941406 C 416.054688 226.398438 407.027344 232.761719 404.566406 232.761719 C 404.15625 232.761719 402.105469 229.679688 400.050781 225.789062 C 395.539062 217.371094 393.898438 216.558594 384.667969 217.988281 C 379.539062 218.609375 377.28125 220.449219 375.640625 224.558594 C 373.589844 230.089844 373.382812 230.089844 348.972656 231.53125 C 335.433594 232.148438 314.507812 232.761719 302.40625 232.761719 C 287.222656 232.761719 279.632812 233.578125 278.402344 235.21875 C 277.171875 236.660156 274.300781 250.609375 271.839844 266.410156 C 267.941406 290 267.53125 295.121094 269.992188 296.558594 C 271.429688 297.589844 279.429688 298.410156 287.632812 298.410156 C 301.585938 298.410156 302.40625 298.609375 302.40625 302.921875 C 302.40625 312.769531 300.558594 313.378906 273.890625 312.359375 C 243.9375 311.128906 244.964844 310.101562 244.964844 338.820312 L 244.964844 358.929688 L 258.710938 374.929688 L 272.25 390.929688 L 273.890625 432.371094 C 275.121094 460.269531 277.171875 482.429688 280.453125 500.480469 L 285.171875 527.140625 L 270.402344 571.25 C 262.195312 595.460938 253.992188 619.660156 252.144531 625 L 248.863281 634.640625 L 216.449219 633.410156 L 184.242188 632.179688 L 169.882812 649.820312 L 155.726562 667.671875 L 115.929688 665.210938 L 106.699219 679.769531 L 97.261719 694.339844 L 81.054688 694.339844 C 62.183594 694.339844 63.210938 693.109375 61.363281 716.910156 C 59.3125 741.929688 59.515625 741.519531 49.054688 741.519531 C 44.128906 741.519531 39.414062 742.550781 38.796875 743.570312 C 37.976562 744.808594 36.539062 764.289062 35.308594 787.269531 C 34.285156 810.039062 32.4375 829.53125 31.410156 830.761719 C 30.179688 831.78125 23.617188 832.398438 16.4375 832.191406 L 3.511719 831.371094 L 2.28125 851.679688 C 1.460938 862.761719 0.847656 882.460938 0.847656 895.378906 L 0.847656 918.96875 L 14.179688 928.609375 L 27.515625 938.460938 L 27.515625 968.210938 L 45.363281 987.691406 C 55.003906 998.359375 67.515625 1012.109375 73.054688 1017.851562 L 83.3125 1028.730469 L 99.3125 1028.730469 C 117.570312 1028.730469 117.777344 1028.929688 117.777344 1046.160156 C 117.777344 1061.960938 118.597656 1062.371094 153.882812 1060.519531 L 183.628906 1059.089844 L 191.21875 1049.039062 C 197.78125 1040.210938 200.449219 1038.371094 211.117188 1035.089844 C 217.886719 1033.039062 223.628906 1031.601562 224.039062 1031.800781 C 224.449219 1032.011719 225.269531 1053.960938 226.09375 1080.210938 L 227.527344 1128.21875 L 410.105469 1128.21875 L 410.71875 1113.039062 C 411.335938 1100.121094 411.746094 1098.480469 414.003906 1101.550781 C 416.464844 1105.039062 417.078125 1105.039062 426.722656 1101.550781 C 440.464844 1096.421875 441.902344 1094.988281 441.902344 1086.160156 C 441.902344 1077.75 444.570312 1075.910156 457.492188 1075.910156 C 465.492188 1075.910156 467.953125 1073.039062 469.800781 1061.550781 C 471.851562 1049.441406 485.1875 1036.320312 494.007812 1037.960938 C 498.316406 1038.78125 503.855469 1036.730469 516.164062 1029.75 C 530.726562 1021.550781 534.011719 1020.519531 545.292969 1020.519531 C 560.472656 1020.519531 576.476562 1026.261719 582.628906 1033.859375 L 586.9375 1039.390625 L 582.015625 1056.011719 C 577.910156 1070.78125 577.296875 1075.5 578.527344 1094.371094 L 579.757812 1115.910156 L 594.734375 1138.480469 C 615.246094 1168.839844 629.8125 1181.761719 668.171875 1202.691406 C 709.203125 1225.050781 770.335938 1248.851562 837.824219 1268.539062 L 892.1875 1284.339844 L 896.496094 1296.640625 C 900.601562 1308.128906 901.421875 1308.949219 911.472656 1312.640625 C 921.113281 1316.128906 921.933594 1316.949219 921.933594 1323.109375 C 921.933594 1326.800781 922.550781 1333.980469 923.164062 1339.320312 C 924.394531 1348.339844 924.394531 1348.75 919.269531 1348.75 C 915.984375 1348.75 910.445312 1352.039062 904.292969 1357.570312 L 894.445312 1366.390625 L 905.316406 1384.238281 C 915.164062 1400.449219 916.394531 1404.140625 920.089844 1426.089844 C 922.34375 1439.21875 924.601562 1450.710938 925.214844 1451.730469 C 925.832031 1452.558594 949.832031 1453.371094 978.347656 1453.371094 L 1030.660156 1453.371094 L 1031.480469 1457.890625 C 1032.101562 1460.558594 1032.921875 1466.910156 1033.53125 1472.449219 C 1035.171875 1487.019531 1041.328125 1496.871094 1056.101562 1508.769531 C 1066.359375 1516.769531 1070.050781 1521.070312 1071.480469 1526.820312 C 1083.589844 1573.800781 1084 1575.230469 1090.558594 1580.570312 L 1097.128906 1586.109375 L 1091.589844 1599.441406 L 1086.25 1612.980469 L 1087.480469 1698.730469 L 1088.710938 1784.683594 L 1077.640625 1830.636719 L 1083.179688 1841.511719 C 1086.25 1847.460938 1089.738281 1853 1090.96875 1853.820312 C 1092.199219 1854.640625 1116 1855.460938 1143.898438 1855.460938 C 1188.410156 1855.460938 1194.570312 1855.871094 1193.539062 1858.539062 C 1191.078125 1864.488281 1196.820312 1867.769531 1209.128906 1867.769531 L 1220.828125 1867.769531 L 1222.058594 1875.152344 C 1223.898438 1886.027344 1226.78125 1888.285156 1238.46875 1888.285156 L 1248.730469 1888.285156 L 1247.5 1927.261719 C 1246.269531 1961.726562 1246.46875 1966.648438 1249.339844 1967.675781 C 1251.808594 1968.496094 1279.5 1961.316406 1298.570312 1954.546875 C 1300.210938 1953.929688 1301.238281 1971.367188 1302.46875 2014.652344 C 1303.289062 2048.296875 1304.730469 2077.835938 1305.75 2080.503906 C 1307.398438 2085.015625 1308.628906 2085.222656 1325.039062 2085.222656 L 1342.480469 2085.222656 L 1341.25 2112.300781 C 1339.398438 2149.226562 1337.550781 2152.511719 1308.421875 2169.125 C 1291.191406 2178.972656 1283.601562 2182.257812 1270.46875 2184.71875 C 1261.238281 2186.359375 1253.039062 2188.207031 1252.011719 2189.027344 C 1250.980469 2189.640625 1250.160156 2196 1250.160156 2203.179688 L 1250.160156 2216.105469 L 1232.320312 2227.183594 C 1215.898438 2237.234375 1213.238281 2239.902344 1196.621094 2262.46875 C 1179.589844 2285.648438 1178.769531 2287.699219 1176.308594 2302.472656 L 1173.851562 2318.0625 L 1146.980469 2347.808594 C 1132.210938 2364.21875 1117.839844 2380.015625 1114.96875 2383.296875 C 1110.460938 2388.222656 1110.25 2389.246094 1112.710938 2391.710938 C 1114.558594 2393.144531 1127.691406 2396.015625 1142.460938 2398.070312 C 1168.308594 2401.554688 1169.75 2401.964844 1185.949219 2412.019531 C 1201.539062 2421.457031 1203.179688 2423.097656 1206.878906 2432.738281 C 1210.570312 2442.585938 1211.589844 2443.816406 1230.671875 2454.894531 L 1250.570312 2466.382812 L 1272.320312 2467.816406 C 1297.339844 2469.253906 1311.289062 2473.765625 1313.960938 2480.742188 C 1314.988281 2483.410156 1315.808594 2489.359375 1315.808594 2494.078125 C 1315.808594 2500.4375 1318.269531 2507 1325.660156 2520.128906 C 1334.269531 2535.515625 1336.121094 2537.566406 1342.679688 2539.207031 L 1350.070312 2540.851562 L 1352.941406 2562.800781 L 1356.019531 2584.75 L 1349.25 2589.46875 C 1342.679688 2593.980469 1340.429688 2599.109375 1337.351562 2616.753906 C 1336.53125 2621.265625 1336.730469 2624.753906 1338.171875 2625.574219 C 1339.398438 2626.394531 1348.21875 2625.78125 1358.070312 2624.550781 L 1375.710938 2622.085938 L 1384.730469 2610.597656 C 1391.910156 2601.367188 1396.21875 2598.085938 1406.480469 2593.777344 L 1419.410156 2588.648438 L 1424.53125 2567.109375 C 1427.410156 2555.414062 1432.539062 2540.441406 1435.820312 2533.875 C 1441.769531 2522.179688 1442.589844 2521.769531 1477.050781 2501.257812 C 1509.871094 2481.972656 1512.539062 2479.921875 1516.640625 2471.101562 C 1519.308594 2465.972656 1526.691406 2451.40625 1533.671875 2438.894531 C 1543.929688 2419.609375 1547.820312 2414.480469 1558.488281 2405.660156 C 1571 2395.605469 1571.410156 2394.992188 1584.539062 2363.398438 L 1597.878906 2331.398438 L 1607.929688 2328.113281 C 1617.371094 2325.039062 1618.191406 2324.011719 1623.929688 2311.085938 C 1628.441406 2300.828125 1633.570312 2294.265625 1645.058594 2283.1875 L 1660.039062 2268.828125 L 1662.910156 2123.585938 L 1672.75 2107.378906 C 1681.371094 2093.019531 1684.238281 2090.144531 1697.578125 2081.941406 C 1706.191406 2076.605469 1721.988281 2063.476562 1733.679688 2051.988281 C 1753.789062 2032.089844 1754.609375 2030.859375 1758.5 2016.703125 L 1762.398438 2002.140625 L 1779.019531 1995.574219 C 1790.300781 1991.0625 1805.691406 1987.164062 1826.609375 1983.882812 C 1861.28125 1978.34375 1869.070312 1974.855469 1872.769531 1964.1875 L 1875.230469 1957.007812 L 1905.800781 1955.367188 C 1922.621094 1954.339844 1937.390625 1952.699219 1938.410156 1951.671875 C 1939.640625 1950.648438 1941.488281 1946.75 1942.71875 1943.058594 L 1944.980469 1936.492188 L 2013.699219 1935.875 L 2082.628906 1935.464844 L 2088.988281 1928.285156 C 2092.269531 1924.390625 2096.378906 1917.414062 2097.609375 1912.902344 C 2100.269531 1903.875 2097.808594 1905.105469 2132.890625 1896.285156 C 2149.910156 1892.179688 2151.148438 1891.359375 2157.710938 1882.335938 C 2164.480469 1872.898438 2164.480469 1872.691406 2163.660156 1853.410156 C 2163.25 1842.535156 2163.660156 1832.6875 2164.890625 1830.84375 C 2166.328125 1828.996094 2171.660156 1827.558594 2181.71875 1827.148438 L 2196.28125 1826.328125 L 2200.179688 1817.304688 C 2202.429688 1812.378906 2204.890625 1802.53125 2205.71875 1795.351562 C 2207.359375 1782.839844 2208.179688 1781.402344 2225.410156 1760.273438 L 2243.460938 1738.117188 L 2247.96875 1716.167969 C 2251.460938 1699.960938 2252.488281 1689.90625 2251.671875 1678.417969 C 2251.050781 1666.316406 2251.671875 1659.75 2255.359375 1648.058594 C 2259.671875 1633.699219 2259.871094 1624.261719 2255.96875 1614.210938 C 2254.738281 1611.128906 2255.558594 1610.929688 2262.738281 1611.949219 C 2269.929688 1612.980469 2290.851562 1609.691406 2295.980469 1606.410156 C 2297 1605.800781 2298.441406 1593.488281 2299.058594 1578.929688 C 2300.289062 1557.378906 2301.308594 1550.199219 2305.410156 1541.378906 C 2308.078125 1535.019531 2311.359375 1521.691406 2312.800781 1510.820312 C 2316.078125 1484.96875 2319.359375 1476.761719 2330.851562 1465.269531 L 2340.289062 1455.429688 L 2341.109375 1379.519531 C 2341.929688 1312.851562 2341.519531 1302.800781 2338.648438 1295.410156 C 2336.800781 1290.691406 2335.769531 1285.980469 2336.390625 1284.949219 C 2337.210938 1283.929688 2341.308594 1283.109375 2345.621094 1283.109375 C 2359.160156 1283.109375 2379.878906 1270.179688 2398.960938 1249.871094 C 2414.960938 1232.640625 2415.371094 1232.019531 2415.371094 1221.769531 C 2415.371094 1210.28125 2418.238281 1205.96875 2429.730469 1200.019531 C 2434.648438 1197.359375 2436.5 1194.480469 2439.371094 1184.640625 C 2442.449219 1173.351562 2444.089844 1171.300781 2457.019531 1160.429688 C 2465.628906 1153.25 2478.140625 1139.5 2489.019531 1125.140625 L 2506.660156 1101.761719 L 2519.988281 1099.089844 C 2527.171875 1097.648438 2533.941406 1095.601562 2534.96875 1094.578125 C 2535.988281 1093.550781 2537.21875 1087.191406 2537.839844 1080.210938 L 2539.070312 1067.699219 L 2547.480469 1065.441406 C 2566.558594 1060.730469 2565.539062 1061.75 2578.050781 1037.140625 C 2584.410156 1024.421875 2589.738281 1011.289062 2589.738281 1008 C 2589.738281 1001.851562 2594.050781 996.519531 2604.511719 989.339844 C 2607.789062 987.078125 2612.101562 979.691406 2616.609375 967.800781 L 2623.589844 949.75 L 2624.820312 872.820312 L 2625.851562 795.890625 L 2619.070312 786.449219 C 2613.328125 778.238281 2611.890625 773.519531 2608.199219 750.75 C 2605.949219 736.390625 2603.691406 723.878906 2603.070312 723.058594 C 2602.660156 722.238281 2577.640625 721.011719 2547.691406 720.390625 L 2492.910156 718.960938 L 2473.21875 705.210938 C 2462.351562 697.621094 2442.648438 681.210938 2429.730469 668.691406 C 2389.730469 630.128906 2366.339844 612.480469 2332.289062 595.25 C 2295.570312 576.589844 2257.621094 567.148438 2218.640625 567.148438 C 2202.230469 567.148438 2191.96875 565.921875 2177.410156 562.019531 C 2166.738281 559.148438 2155.859375 556.890625 2153.199219 556.890625 C 2150.53125 556.890625 2124.269531 549.300781 2094.730469 540.269531 L 2041.191406 523.660156 L 2035.449219 530.429688 C 2032.371094 534.121094 2029.699219 538.019531 2029.699219 538.839844 C 2029.699219 541.089844 2023.75 540.679688 2015.75 537.808594 C 2011.039062 536.171875 2003.648438 528.578125 1991.140625 512.988281 C 1973.699219 491.039062 1973.078125 490.429688 1960.980469 487.140625 C 1953.800781 485.300781 1941.289062 479.140625 1931.230469 472.578125 C 1900.050781 452.46875 1896.160156 450.621094 1878.921875 448.371094 C 1864.769531 446.320312 1861.890625 445.289062 1858.410156 440.371094 C 1856.148438 437.289062 1850.199219 429.5 1845.070312 422.730469 L 1835.839844 410.828125 L 1788.660156 411.03125 C 1749.679688 411.238281 1741.070312 411.859375 1739.21875 414.320312 C 1737.988281 415.960938 1734.300781 426.210938 1731.21875 436.878906 C 1725.890625 454.519531 1724.660156 456.78125 1717.480469 461.5 L 1709.679688 466.628906 L 1702.300781 462.109375 L 1694.910156 457.390625 L 1697.371094 422.929688 L 1711.941406 403.441406 C 1723.429688 387.648438 1725.679688 383.339844 1723.628906 381.488281 C 1721.988281 379.851562 1706.601562 378.210938 1684.039062 376.769531 C 1652.648438 374.71875 1646.699219 373.898438 1644.441406 370.820312 C 1636.859375 360.160156 1636.441406 359.949219 1619.828125 359.949219 L 1603.828125 359.949219 L 1600.339844 341.898438 C 1598.488281 331.851562 1596.851562 322 1596.851562 319.949219 C 1596.851562 317.898438 1600.550781 310.101562 1604.851562 302.511719 C 1610.191406 293.28125 1613.679688 283.640625 1615.320312 274.199219 L 1617.980469 259.839844 L 1604.851562 240.761719 L 1591.71875 221.480469 L 1572.230469 219.839844 C 1561.570312 218.808594 1552.539062 217.78125 1552.128906 217.371094 C 1551.71875 216.960938 1542.691406 185.171875 1532.230469 146.601562 C 1521.769531 108.03125 1512.539062 76.03125 1511.921875 75.421875 C 1511.308594 74.800781 1506.378906 73.769531 1501.050781 73.359375 L 1491.199219 72.339844 L 1456.539062 140.859375 C 1437.460938 178.398438 1421.660156 209.371094 1421.25 209.78125 C 1420.640625 210.609375 1304.929688 198.300781 1294.269531 196.25 C 1288.320312 195.019531 1282.570312 195.628906 1273.75 198.300781 C 1263.699219 201.578125 1256.109375 202.191406 1231.699219 201.578125 L 1201.949219 200.960938 L 1200.109375 221.679688 L 1198.261719 242.398438 L 1169.339844 243.839844 C 1101.429688 246.921875 1103.28125 246.710938 1091.789062 256.359375 L 1081.539062 265.179688 L 1055.691406 266.609375 C 1041.328125 267.230469 1028.808594 268.050781 1027.578125 268.25 C 1019.171875 269.070312 978.964844 264.769531 978.347656 262.921875 C 977.9375 261.480469 976.503906 256.558594 975.269531 252.050781 C 973.425781 244.660156 970.347656 241.171875 955.167969 228.859375 L 937.113281 214.300781 L 943.882812 142.089844 C 947.578125 102.289062 950.449219 65.359375 950.65625 60.03125 C 950.65625 50.800781 950.242188 49.980469 943.679688 47.308594 L 936.703125 44.441406 L 937.730469 30.898438 C 938.757812 18.589844 938.347656 16.75 933.21875 9.148438 L 927.472656 0.949219 L 897.316406 0.949219 Z M 877.828125 30.28125 "/>
</svg>
